<svg aria-hidden="true" style="position:absolute;width:0;height:0;overflow:hidden" xmlns="http://www.w3.org/2000/svg"><defs>
<symbol id="Logo-6" viewBox="0 0 32 32"><path  d="M16.128 15.218a.89.89 0 0 1-.183-.6v-.87c0-.267.061-.47.182-.608s.329-.208.624-.207c.277 0 .473.059.59.177a.721.721 0 0 1 .174.521v.205h-.495v-.207a1.061 1.061 0 0 0-.014-.203.193.193 0 0 0-.071-.12.286.286 0 0 0-.179-.047.303.303 0 0 0-.189.05.233.233 0 0 0-.082.133.972.972 0 0 0-.019.215v1.056a.536.536 0 0 0 .064.297c.025.031.059.056.099.072s.084.021.128.017a.268.268 0 0 0 .175-.048.22.22 0 0 0 .074-.128c.012-.07.017-.141.015-.212v-.214h.495v.196a.795.795 0 0 1-.171.547c-.114.129-.308.194-.593.194s-.5-.069-.623-.213zM18.191 15.226c-.125-.136-.188-.333-.188-.594v-.916c0-.259.063-.454.188-.587s.334-.199.628-.198c.291 0 .499.066.625.198s.189.329.189.587v.916c0 .259-.064.457-.191.593s-.334.205-.623.205c-.288 0-.502-.069-.628-.204zm.858-.219a.507.507 0 0 0 .059-.271v-1.121a.5.5 0 0 0-.058-.266c-.025-.032-.06-.057-.101-.073s-.086-.021-.131-.016c-.044-.005-.09 0-.131.016s-.076.041-.102.073a.48.48 0 0 0-.059.266v1.126a.507.507 0 0 0 .059.271.341.341 0 0 0 .462 0v-.005zM20.227 12.958h.533l.401 1.689.41-1.689h.519l.052 2.438h-.384l-.041-1.695-.396 1.695h-.308l-.41-1.701-.038 1.701h-.388l.048-2.438zM22.741 12.958h.831c.479 0 .718.231.718.692 0 .442-.252.663-.756.662h-.283v1.084h-.513l.003-2.438zm.71 1.042a.384.384 0 0 0 .282-.077.393.393 0 0 0 .074-.275.75.75 0 0 0-.025-.221c-.007-.024-.02-.047-.038-.067s-.04-.037-.065-.049a.537.537 0 0 0-.229-.039h-.199v.729h.199zM25.029 12.958h.551l.565 2.438h-.478l-.112-.562h-.491l-.115.562h-.485l.565-2.438zm.471 1.594-.192-1.023-.192 1.023h.384zM26.601 12.958h.359l.687 1.391v-1.391h.426v2.438h-.342l-.691-1.452v1.452h-.44l.001-2.438zM29.07 14.467l-.571-1.505h.481l.349.967.327-.967h.471l-.564 1.505v.93h-.492v-.93zM16.92 16.462v.128h-.418v.991h-.175v-.991h-.42v-.128h1.014zM18.232 17.581h-.135a.057.057 0 0 1-.038-.011.058.058 0 0 1-.023-.026l-.121-.266h-.58l-.121.266a.078.078 0 0 1-.018.03.07.07 0 0 1-.038.011h-.135l.513-1.118h.178l.519 1.114zm-.849-.415h.484l-.205-.455a.825.825 0 0 1-.038-.105l-.019.059-.018.047-.203.454zM19.116 17.471h.096a.621.621 0 0 0 .156-.033l.069-.027v-.252h-.205c-.005 0-.01 0-.015-.002l-.013-.007-.008-.009a.014.014 0 0 1-.002-.011v-.086h.398v.429a.714.714 0 0 1-.217.091.928.928 0 0 1-.128.023c-.05.005-.1.007-.15.007a.75.75 0 0 1-.258-.042.62.62 0 0 1-.205-.117.537.537 0 0 1-.132-.177.592.592 0 0 1-.001-.466c.029-.066.075-.127.132-.177s.128-.09.205-.116a.982.982 0 0 1 .54-.004.626.626 0 0 1 .192.102l-.049.069c-.004.006-.01.012-.017.015s-.015.006-.023.006a.062.062 0 0 1-.032-.009.513.513 0 0 1-.05-.027.62.62 0 0 0-.293-.065.599.599 0 0 0-.198.031.431.431 0 0 0-.151.089.38.38 0 0 0-.095.139.521.521 0 0 0 0 .373.443.443 0 0 0 .253.23.577.577 0 0 0 .203.022zM20.751 17.453h.56v.128h-.731v-1.118h.175l-.004.991zM21.893 17.581h-.175v-1.118h.175v1.118zM22.545 16.468a.09.09 0 0 1 .027.02l.75.843a.267.267 0 0 1 0-.04V16.458h.153v1.123h-.088a.082.082 0 0 1-.038-.006.12.12 0 0 1-.028-.021l-.749-.842V17.582h-.147v-1.118h.091c.01 0 .02.002.029.005zM24.766 16.462v.123h-.622v.369h.504v.119h-.504v.382h.622v.123h-.802v-1.116h.802zM6.388 9.556l7.787 1.909v6.689l-7.787-1.908v-6.69zm-.499-.57v7.585l8.785 2.154v-7.584L5.889 8.986z"/><path d="m10.597 22.247-8.786-2.156v-7.584l8.786 2.155v7.585zM6.035 9.47l7.686 1.885-3.268 2.823-7.687-1.886 3.27-2.822zm-.146-.484-4.078 3.52 8.786 2.155 4.077-3.52-8.785-2.155zM11.092 21.82l3.582-3.094-3.582-.879v3.973z"/></symbol>
<symbol id="Logo-5" viewBox="0 0 32 32"><path  d="M8.078 20.448a.431.431 0 0 1 .111.295c.004.07-.01.14-.039.204s-.075.122-.132.168a.793.793 0 0 1-.499.136h-.877v-1.869h.859c.17-.01.338.034.476.124.055.043.099.096.128.157s.042.127.038.193a.408.408 0 0 1-.1.286.476.476 0 0 1-.261.146.506.506 0 0 1 .296.16zm-1.029-.282h.367a.367.367 0 0 0 .233-.062c.028-.023.049-.051.063-.083s.019-.066.016-.1c.003-.034-.003-.068-.016-.099s-.034-.06-.061-.083a.38.38 0 0 0-.24-.063H7.05v.49zm.637.717c.029-.023.053-.053.068-.086s.022-.069.019-.104a.224.224 0 0 0-.089-.191.403.403 0 0 0-.249-.068H7.05v.514h.39a.405.405 0 0 0 .246-.065zM9.833 21.252l-.478-.73h-.18v.73h-.411v-1.869h.778a.812.812 0 0 1 .542.159.556.556 0 0 1 .058.773.645.645 0 0 1-.371.19l.509.747h-.447zm-.657-.985h.336c.233 0 .35-.094.35-.283.002-.039-.004-.077-.019-.113s-.038-.069-.067-.097a.392.392 0 0 0-.264-.076h-.34l.004.569zM12.079 20.876h-.819l-.145.376h-.431l.752-1.848h.466l.749 1.848h-.431l-.142-.376zm-.11-.283-.299-.789-.299.789h.598zM14.89 21.252h-.408l-.914-1.271v1.271h-.407v-1.869h.407l.914 1.278v-1.278h.408v1.869zM17.217 20.805a.852.852 0 0 1-.369.33 1.295 1.295 0 0 1-.573.118h-.726v-1.869h.726a1.32 1.32 0 0 1 .573.115.838.838 0 0 1 .369.326c.084.152.128.32.128.49s-.044.338-.128.49zm-.466-.045c.116-.124.18-.282.18-.446s-.064-.322-.18-.446a.753.753 0 0 0-.511-.159h-.283v1.21h.283a.75.75 0 0 0 .511-.159zM12.334 8.986s5.264 1.82 5.153 4.453v4.454s-5.261-1.821-5.151-4.454l-.002-4.453zM22.177 16.851a7.626 7.626 0 0 1 3.345-1.129v-1.394c-1.383.488-2.557 1.373-3.345 2.523z"/><path d="M21.579 17.271c.814-1.5 2.225-2.658 3.942-3.235v-4.018s-7.497 2.592-7.339 6.342v6.341s.334-.116.86-.333c0-.203 0-.407.024-.613.155-1.741 1.059-3.354 2.513-4.485z"/><path d="M20.866 19.627c.039-.44.127-.875.262-1.298-.905.977-1.454 2.189-1.568 3.465a5.465 5.465 0 0 0-.02.365c.426-.187.921-.421 1.442-.696a6.028 6.028 0 0 1-.117-1.836zM21.165 19.649a5.732 5.732 0 0 0 .093 1.663c2.048-1.122 4.35-2.856 4.261-4.952v-.183c-1.463.15-2.833.736-3.897 1.667a5.828 5.828 0 0 0-.457 1.804z"/></symbol>
<symbol id="Logo-4" viewBox="0 0 32 32"><path  d="M7.289 13.314h-.001c-.724 0-1.311.522-1.311 1.165v.001c0 .643.587 1.165 1.311 1.165h.001c.724 0 1.311-.522 1.311-1.165v-.001c0-.643-.587-1.165-1.311-1.165zM16.965 12.942c-.002-.894-.402-1.75-1.113-2.382s-1.675-.988-2.68-.99c-1.006.002-1.97.357-2.681.989s-1.112 1.489-1.114 2.383v4.928s7.587-.751 7.588-4.927v-.001zM3.321 19.487c.002.622.28 1.218.775 1.657s1.165.688 1.865.689c.699-.002 1.37-.25 1.864-.689s.773-1.035.775-1.657v-3.429s-5.28.523-5.28 3.428zm2.639.614c-.137 0-.27-.036-.384-.104s-.202-.163-.255-.276c-.052-.112-.066-.236-.039-.355s.093-.229.189-.315a.762.762 0 0 1 .753-.133c.126.047.234.125.31.226a.567.567 0 0 1 .065.577.605.605 0 0 1-.15.2c-.064.057-.141.103-.225.134s-.174.047-.265.047V20.1zM11.296 19.763h-.509v.526h-.265v-1.288h.838v.215h-.573v.333h.509v.214zm1.275-.089c0 .127-.022.238-.067.333a.508.508 0 0 1-.48.299.508.508 0 0 1-.481-.296.765.765 0 0 1-.07-.329v-.064c0-.127.023-.238.068-.334a.508.508 0 0 1 .481-.3c.108 0 .203.026.286.078.084.051.148.125.194.222s.069.207.069.333v.058zm-.269-.058c0-.135-.024-.238-.072-.308s-.117-.105-.207-.105c-.089 0-.158.035-.206.104s-.073.17-.073.304v.063c0 .131.024.233.072.306s.118.109.209.109c.089 0 .157-.035.205-.104s.072-.172.072-.306v-.063zm1.13.335c0-.05-.018-.088-.053-.115s-.099-.055-.191-.085a1.428 1.428 0 0 1-.218-.088c-.146-.079-.219-.185-.219-.319 0-.07.019-.131.058-.186s.096-.098.169-.128c.074-.031.156-.046.248-.046s.174.017.246.05a.377.377 0 0 1 .227.348h-.265c0-.059-.019-.105-.056-.137s-.089-.049-.157-.049c-.065 0-.115.014-.151.042s-.054.063-.054.108c0 .042.021.077.063.105s.105.055.187.08c.151.045.261.102.33.169s.104.151.104.251c0 .111-.042.199-.127.263s-.198.095-.341.095c-.099 0-.189-.018-.271-.054s-.144-.086-.187-.149a.386.386 0 0 1-.064-.219h.266c0 .142.085.213.255.213.063 0 .112-.013.148-.038s.053-.062.053-.108zm1.416-.735h-.394v1.073h-.265v-1.073H13.8v-.215h1.049v.215zm.927.515h-.509v.345h.598v.213h-.863v-1.288h.861v.215h-.596v.307h.509v.208zm.72.086h-.211v.471h-.265V19h.479c.152 0 .269.034.352.102s.124.164.124.287c0 .088-.019.161-.057.22s-.095.105-.172.14l.279.526v.012h-.285l-.241-.471zm-.211-.214h.214c.067 0 .118-.017.155-.05s.055-.081.055-.141c0-.061-.017-.108-.052-.143s-.087-.052-.158-.052h-.213v.387zm1.608.232v.454h-.265v-1.288h.502c.097 0 .182.018.255.053a.397.397 0 0 1 .229.373c0 .126-.043.226-.13.299s-.206.109-.358.109h-.233zm0-.215h.237c.07 0 .124-.017.16-.05s.056-.08.056-.142c0-.063-.019-.114-.056-.153s-.088-.059-.154-.06h-.243v.404zm1.679.111h-.509v.345h.598v.213h-.863v-1.288h.861v.215h-.596v.307h.509v.208zm1.231-.515h-.394v1.073h-.265v-1.073h-.389v-.215h1.049v.215zm.927.515h-.509v.345h.598v.213h-.863v-1.288h.861v.215h-.596v.307h.509v.208zm.721.086h-.211v.471h-.265V19h.478c.152 0 .269.034.352.102s.124.164.124.287c0 .088-.019.161-.057.22s-.095.105-.172.14l.279.526v.012h-.285l-.241-.471zm-.212-.214h.214c.067 0 .118-.017.155-.05s.055-.081.055-.141c0-.061-.017-.108-.052-.143s-.087-.052-.158-.052h-.213v.387zm1.559.348c0-.05-.018-.088-.053-.115s-.099-.055-.191-.085a1.428 1.428 0 0 1-.218-.088c-.146-.079-.219-.185-.219-.319 0-.07.019-.131.058-.186s.096-.098.169-.128c.074-.031.156-.046.248-.046s.174.017.246.05a.377.377 0 0 1 .227.348h-.265c0-.059-.019-.105-.056-.137s-.089-.049-.157-.049c-.065 0-.115.014-.151.042s-.054.063-.054.108c0 .042.021.077.063.105s.105.055.187.08c.151.045.261.102.33.169s.103.151.103.251c0 .111-.042.199-.126.263s-.198.095-.34.095c-.099 0-.189-.018-.271-.054s-.144-.086-.187-.149a.386.386 0 0 1-.064-.219h.266c0 .142.085.213.255.213.063 0 .112-.013.148-.038s.053-.062.053-.108z"/></symbol>
<symbol id="Logo-3" viewBox="0 0 32 32"><path  d="M10.991 21.766c.005 0 .01.001.014.003l.012.007.066.063a.526.526 0 0 1-.185.119.73.73 0 0 1-.263.043.685.685 0 0 1-.247-.04.503.503 0 0 1-.306-.288.578.578 0 0 1-.042-.224.527.527 0 0 1 .371-.514.776.776 0 0 1 .254-.04.694.694 0 0 1 .236.036.657.657 0 0 1 .177.101l-.055.067a.053.053 0 0 1-.014.012c-.007.004-.014.006-.022.005s-.017-.003-.024-.007l-.03-.018-.041-.023c-.018-.008-.036-.016-.055-.022a.532.532 0 0 0-.173-.025.513.513 0 0 0-.183.03.39.39 0 0 0-.236.218.453.453 0 0 0-.034.177.45.45 0 0 0 .034.18.373.373 0 0 0 .228.217.51.51 0 0 0 .17.029.663.663 0 0 0 .1-.006.398.398 0 0 0 .217-.092.049.049 0 0 1 .031-.011zM12.892 21.45a.55.55 0 0 1-.044.222c-.027.064-.069.123-.124.173s-.121.088-.195.113a.806.806 0 0 1-.5 0 .574.574 0 0 1-.193-.114.514.514 0 0 1-.125-.174.584.584 0 0 1 0-.446.522.522 0 0 1 .125-.175.565.565 0 0 1 .193-.109.792.792 0 0 1 .5 0c.073.026.139.064.194.114a.504.504 0 0 1 .168.396zm-.173 0a.479.479 0 0 0-.031-.179.363.363 0 0 0-.227-.218.58.58 0 0 0-.364 0 .37.37 0 0 0-.228.218.524.524 0 0 0 0 .358.379.379 0 0 0 .228.218.595.595 0 0 0 .364 0 .368.368 0 0 0 .227-.218.46.46 0 0 0 .031-.179zM14.189 21.638l.017.04.019-.04c.007-.013.013-.027.021-.039l.421-.664c.008-.011.016-.019.024-.021a.134.134 0 0 1 .035-.004h.124v1.081h-.147V21.126l-.423.674c-.005.01-.014.019-.025.025s-.023.009-.036.009h-.024c-.013 0-.025-.003-.036-.009s-.019-.015-.025-.025l-.435-.678v.867h-.142v-1.078h.124a.105.105 0 0 1 .035.004c.01.004.018.012.023.021l.43.665a.183.183 0 0 1 .021.039zM15.772 21.584v.405h-.165V20.91h.367a.787.787 0 0 1 .205.024.41.41 0 0 1 .145.067.263.263 0 0 1 .082.106.331.331 0 0 1 .028.138.305.305 0 0 1-.119.246.434.434 0 0 1-.146.072.694.694 0 0 1-.198.025l-.199-.003zm0-.116h.199a.505.505 0 0 0 .128-.016.276.276 0 0 0 .092-.047.208.208 0 0 0 .076-.163c.002-.03-.004-.06-.017-.088s-.032-.053-.058-.074a.354.354 0 0 0-.221-.058h-.199v.445zM17.984 21.99h-.13a.063.063 0 0 1-.036-.01.063.063 0 0 1-.021-.025l-.112-.261h-.562l-.116.261a.049.049 0 0 1-.021.024.067.067 0 0 1-.037.011h-.13l.494-1.081h.171l.5 1.081zm-.815-.401h.464l-.196-.44a.73.73 0 0 1-.037-.102l-.019.056a.556.556 0 0 1-.018.046l-.194.439zM18.695 20.915c.01.005.018.011.025.019l.72.815v-.839h.147v1.081h-.082c-.012 0-.023-.002-.034-.006s-.019-.012-.026-.02l-.719-.814V21.991h-.147V20.91h.087c.01 0 .02.001.03.005zM20.801 21.56v.429h-.165v-.429l-.455-.651h.147a.06.06 0 0 1 .035.009.1.1 0 0 1 .022.024l.285.42c.012.018.021.034.03.05s.015.031.021.046l.021-.047a.343.343 0 0 1 .028-.049l.281-.423a.15.15 0 0 1 .021-.023.06.06 0 0 1 .035-.011h.149l-.456.654zM14.108 19.096c.072.008.144.014.217.02 1.111-.432 2.05-1.138 2.701-2.031s.985-1.933.959-2.99l-1.224-1.063c.249 1.125.132 2.288-.336 3.359s-1.271 2.008-2.317 2.705z"/><path d="m13.671 19.047.033.006c1.118-.695 1.971-1.665 2.447-2.786s.555-2.339.226-3.499l-1.743-1.515c.705 1.245.989 2.638.818 4.018s-.788 2.689-1.781 3.775zM19.583 15.344c-.296 1.161-1.016 2.209-2.051 2.986a6.541 6.541 0 0 1-.975.608c.843-.215 1.618-.596 2.266-1.113s1.149-1.156 1.467-1.868l-.707-.614z"/><path d="m19.305 15.173-1.007-.875c-.019.997-.346 1.972-.945 2.822s-1.45 1.546-2.463 2.014h.005c.226 0 .451-.012.676-.035.947-.336 1.784-.87 2.435-1.555s1.098-1.5 1.299-2.371zM13.816 10.615 12.615 9.57c-1.074.36-1.997.994-2.649 1.818s-1.003 1.8-1.006 2.8c.004 1.105.432 2.177 1.216 3.047s1.88 1.487 3.114 1.755c1.101-1.166 1.746-2.607 1.841-4.113s-.366-2.999-1.315-4.262zM22.08 15.012c-.004-1.311-.606-2.567-1.673-3.494s-2.513-1.449-4.022-1.453a6.372 6.372 0 0 0-2.039.33l7.353 6.388a4.32 4.32 0 0 0 .38-1.771z"/></symbol>
<symbol id="Logo-2" viewBox="0 0 32 32"><path  d="M15.129 8.735h-.041c-.063-.004-.127-.005-.19-.007h-.137a7.43 7.43 0 0 0-.391.009 8.526 8.526 0 0 0-3.175.81l-.131.063v6.684l.305-.104c.268-.092.554-.175.849-.252a10.389 10.389 0 0 1 2.444-.325v.878a8.532 8.532 0 0 0-.322.009h-.025a9.713 9.713 0 0 0-1.88.289 9.547 9.547 0 0 0-2.24.873V9.089a9.015 9.015 0 0 1 2.35-.956 9.001 9.001 0 0 1 2.215-.286h.129c.154.004.305.011.446.021.372.026.741.085 1.104.176v.864a6.78 6.78 0 0 0-1.069-.161l-.022-.002c-.075-.006-.149-.013-.219-.013zm1.521.884c.192.015.39.021.591.021a9.478 9.478 0 0 0 2.328-.299 9.586 9.586 0 0 0 2.239-.874v8.42a9.008 9.008 0 0 1-2.351.956 9.048 9.048 0 0 1-2.215.285 6.749 6.749 0 0 1-1.68-.198V9.456a6.862 6.862 0 0 0 1.086.163zm4.285.065-.305.103c-.281.094-.564.179-.849.254-.829.213-1.682.322-2.538.325-.199 0-.383-.005-.56-.017l-.244-.016v6.876l.209.018c.194.017.394.025.596.025a8.126 8.126 0 0 0 1.999-.259 8.41 8.41 0 0 0 1.562-.561l.131-.063V9.683zM10.789 20.592a.453.453 0 0 0-.339-.137.506.506 0 0 0-.196.037c-.057.023-.109.057-.153.101s-.077.096-.098.154a.493.493 0 0 0-.035.19v1.145a.541.541 0 0 0 .045.235.458.458 0 0 0 .115.154.4.4 0 0 0 .157.081.62.62 0 0 0 .171.024.489.489 0 0 0 .475-.483v-.128h-.299v.102a.253.253 0 0 1-.018.102.188.188 0 0 1-.044.064.22.22 0 0 1-.126.044.153.153 0 0 1-.141-.062.275.275 0 0 1-.04-.154v-1.068a.362.362 0 0 1 .037-.171c.016-.024.038-.043.063-.056s.055-.017.083-.013c.026-.001.051.004.075.016s.043.028.059.049a.243.243 0 0 1 .05.154v.099h.296v-.117a.522.522 0 0 0-.137-.361zM12.567 20.579a.532.532 0 0 0-.52-.094.47.47 0 0 0-.274.254.547.547 0 0 0-.044.222v1.099a.46.46 0 0 0 .16.379.478.478 0 0 0 .337.129.524.524 0 0 0 .341-.129.456.456 0 0 0 .113-.154.529.529 0 0 0 .044-.225v-1.099a.53.53 0 0 0-.044-.222.49.49 0 0 0-.113-.16zm-.14 1.481c.002.029-.002.059-.012.086s-.027.052-.048.073a.22.22 0 0 1-.282 0 .202.202 0 0 1-.06-.159v-1.099a.194.194 0 0 1 .06-.159.22.22 0 0 1 .282 0 .202.202 0 0 1 .06.159v1.099zM14.903 22.551v-2.08h-.288l-.378 1.101h-.005l-.381-1.101h-.285v2.08h.297v-1.265h.005l.291.894h.148l.293-.894h.005v1.265h.297zM16.591 20.617a.43.43 0 0 0-.168-.114.63.63 0 0 0-.215-.032h-.441v2.08h.296v-.812h.153a.539.539 0 0 0 .267-.057.429.429 0 0 0 .163-.159.51.51 0 0 0 .068-.181c.012-.078.017-.157.016-.236.003-.1-.007-.2-.029-.297a.44.44 0 0 0-.109-.191zm-.153.634a.265.265 0 0 1-.027.108.168.168 0 0 1-.076.073.294.294 0 0 1-.14.026h-.135v-.707h.153a.295.295 0 0 1 .134.026.169.169 0 0 1 .07.077.31.31 0 0 1 .026.116v.138c0 .048.003.098 0 .143h-.003zM17.995 20.471h-.243l-.458 2.08h.296l.087-.447h.404l.087.447h.296l-.47-2.08zm-.274 1.35.146-.754h.005l.145.754h-.296zM19.909 21.724h-.005l-.448-1.253h-.285v2.08h.296V21.3h.006l.453 1.251h.279v-2.08h-.296v1.253zM21.72 20.471l-.238.827h-.006l-.238-.827h-.314l.407 1.201v.879h.296v-.879l.407-1.201h-.314zM9.962 23.138h.143v.401h.097v-.401h.142v-.082h-.382v.082zM11.163 23.056l-.187.483h.103l.04-.11h.192l.041.11h.105l-.192-.483h-.103zm-.015.292.066-.179.066.179h-.131zM12.35 23.361h.112v.062a.192.192 0 0 1-.115.041.126.126 0 0 1-.103-.047.202.202 0 0 1-.036-.126c0-.107.047-.161.139-.161a.102.102 0 0 1 .109.077l.095-.018c-.021-.094-.089-.142-.205-.142a.246.246 0 0 0-.169.062.24.24 0 0 0-.069.186.26.26 0 0 0 .062.181.226.226 0 0 0 .183.071.288.288 0 0 0 .205-.077v-.19h-.209v.081zM13.562 23.056h-.098v.483h.338v-.082h-.241v-.401zM14.586 23.056h-.098v.483h.098v-.483zM15.588 23.378l-.198-.322h-.095v.483h.091v-.316l.194.316h.097v-.483h-.089v.322zM16.494 23.326h.241v-.082h-.241v-.106h.259v-.082h-.357v.483h.367v-.082h-.269v-.131zM18.69 23.246h-.19v-.19h-.097v.483h.097v-.211h.19v.211h.097v-.483h-.097v.19zM19.602 23.326h.241v-.082h-.241v-.106h.26v-.082h-.357v.483h.366v-.082h-.269v-.131zM20.837 23.326c.084-.013.127-.058.127-.134a.117.117 0 0 0-.047-.107.267.267 0 0 0-.141-.028h-.205v.483h.097v-.202h.019a.124.124 0 0 1 .06.011.103.103 0 0 1 .034.035l.105.154h.116l-.059-.094a.34.34 0 0 0-.107-.116zm-.098-.067h-.072v-.121h.076a.24.24 0 0 1 .099.012c.007.006.013.014.016.023s.005.018.005.028a.061.061 0 0 1-.025.048.275.275 0 0 1-.099.012zM21.769 23.326h.241v-.082h-.241v-.106h.26v-.082h-.357v.483h.367v-.082h-.269v-.131z"/></symbol>
<symbol id="Logo-1" viewBox="0 0 32 32"><path  d="m11.472 9.057 2.116 2.003-3.927-.002v9.717h10.264V17.06l2.113 2.001V9.058H11.472zm8.36 7.767-5.998-5.679h5.998v5.679zm-1.863 2.529h-6.685v-6.535h.473v6.093h6.212v.442zm-5.106 2.715-.247.509-.247-.509h-.207l.36.678v.395h.187v-.395l.36-.678h-.206zm.31 1.073.087-.25h.416l.088.25h.195l-.406-1.073h-.167l-.405 1.073h.194zm.295-.846.155.445h-.311l.156-.445zm.983.42a.282.282 0 0 0 .054.356c.063.056.149.084.255.084s.198-.029.274-.086l.06.072h.208l-.158-.186a.535.535 0 0 0 .093-.325h-.155a.43.43 0 0 1-.045.197l-.207-.245.073-.053c.052-.037.089-.075.111-.112s.034-.079.034-.124c0-.068-.025-.125-.075-.17s-.114-.069-.192-.069c-.086 0-.155.025-.206.074s-.077.115-.077.199c0 .034.008.07.024.107s.046.082.088.134a.62.62 0 0 0-.16.148zm.485.237a.275.275 0 0 1-.169.06c-.054 0-.096-.015-.128-.046s-.048-.071-.048-.121c0-.057.03-.109.088-.153l.023-.016.234.276zm-.193-.475c-.051-.062-.076-.114-.076-.155 0-.036.01-.066.031-.089s.048-.035.083-.035c.032 0 .059.01.08.03s.032.043.032.072a.132.132 0 0 1-.046.104l-.023.018-.082.056zm1.747.583a.388.388 0 0 0 .127-.268h-.186c-.01.077-.033.131-.07.164s-.092.049-.165.049c-.08 0-.141-.03-.183-.091s-.062-.149-.062-.265v-.095c.001-.114.023-.201.066-.26s.106-.089.187-.089c.07 0 .123.017.158.052s.059.089.068.167h.186c-.012-.117-.054-.208-.126-.273s-.168-.097-.286-.097a.407.407 0 0 0-.387.241.625.625 0 0 0-.054.268v.1c.001.099.02.185.055.26s.085.132.15.173c.065.04.141.06.226.06.122 0 .22-.032.294-.096zm1.096-.151a.668.668 0 0 0 .055-.277v-.06c0-.105-.019-.196-.056-.275s-.089-.14-.157-.181c-.067-.042-.145-.063-.232-.063s-.165.021-.233.064c-.067.042-.12.103-.157.184s-.055.172-.055.277v.06c0 .103.019.193.056.272s.09.139.158.182c.068.042.146.063.233.063s.166-.021.233-.063a.413.413 0 0 0 .156-.183zm-.2-.606a.468.468 0 0 1 .068.273v.056c0 .121-.022.213-.067.276s-.108.094-.19.094-.145-.032-.192-.097-.069-.155-.069-.273v-.062c.001-.115.024-.205.069-.268s.109-.095.189-.095a.22.22 0 0 1 .191.095z"/></symbol>
<symbol id="linkedin" viewBox="0 0 32 32"><path  d="M31.992 32v-.001H32V20.263c0-5.741-1.236-10.164-7.948-10.164-3.227 0-5.392 1.771-6.276 3.449h-.093v-2.913h-6.364v21.364h6.627V21.42c0-2.785.528-5.479 3.977-5.479 3.399 0 3.449 3.179 3.449 5.657v10.401h6.62zM.528 10.636h6.635V32H.528V10.636zM3.843 0C1.722 0 0 1.721 0 3.843s1.721 3.879 3.843 3.879c2.121 0 3.843-1.757 3.843-3.879A3.846 3.846 0 0 0 3.843 0z"/></symbol>
<symbol id="facebook" viewBox="0 0 32 32"><path  d="M21.329 5.313h2.921V.225C23.746.156 22.013 0 19.994 0c-4.212 0-7.097 2.649-7.097 7.519V12H8.249v5.688h4.648V32h5.699V17.689h4.46l.708-5.688h-5.169V8.082c.001-1.644.444-2.769 2.735-2.769z"/></symbol>
<symbol id="twitter" viewBox="0 0 32 32"><path d="M32 6.078c-1.19.522-2.458.868-3.78 1.036a6.523 6.523 0 0 0 2.886-3.626 13.11 13.11 0 0 1-4.16 1.588A6.574 6.574 0 0 0 22.154 3c-3.632 0-6.556 2.948-6.556 6.562 0 .52.044 1.02.152 1.496-5.454-.266-10.28-2.88-13.522-6.862a6.605 6.605 0 0 0-.898 3.316 6.57 6.57 0 0 0 2.914 5.452 6.479 6.479 0 0 1-2.964-.808v.072c0 3.188 2.274 5.836 5.256 6.446a6.548 6.548 0 0 1-1.72.216 5.8 5.8 0 0 1-1.242-.112c.85 2.598 3.262 4.508 6.13 4.57a13.182 13.182 0 0 1-8.134 2.798c-.538 0-1.054-.024-1.57-.09A18.469 18.469 0 0 0 10.064 29c12.072 0 18.672-10 18.672-18.668 0-.29-.01-.57-.024-.848A13.087 13.087 0 0 0 32 6.078z"/></symbol>
<symbol id="instagram" viewBox="0 0 32 32"><path d="M31.969 9.408c-.075-1.7-.35-2.869-.744-3.882a7.806 7.806 0 0 0-1.851-2.838A7.867 7.867 0 0 0 26.542.844C25.523.45 24.36.175 22.66.1 20.947.019 20.403 0 16.059 0s-4.888.019-6.595.094c-1.7.075-2.869.35-3.882.744a7.803 7.803 0 0 0-2.838 1.85A7.867 7.867 0 0 0 .9 5.52C.506 6.539.231 7.702.156 9.402c-.081 1.713-.1 2.257-.1 6.601s.019 4.888.094 6.595c.075 1.7.35 2.869.744 3.882a7.895 7.895 0 0 0 1.85 2.838 7.867 7.867 0 0 0 2.832 1.844c1.019.394 2.182.669 3.882.744 1.706.075 2.25.094 6.595.094s4.888-.019 6.595-.094c1.7-.075 2.869-.35 3.882-.744a8.184 8.184 0 0 0 4.682-4.682c.394-1.019.669-2.182.744-3.882.075-1.707.094-2.251.094-6.595s-.006-4.888-.081-6.595zm-2.882 13.065c-.069 1.563-.331 2.407-.55 2.969a5.31 5.31 0 0 1-3.038 3.038c-.563.219-1.413.481-2.969.55-1.688.075-2.194.094-6.464.094s-4.782-.019-6.464-.094c-1.563-.069-2.407-.331-2.969-.55a4.926 4.926 0 0 1-1.838-1.194 4.974 4.974 0 0 1-1.194-1.838c-.219-.563-.481-1.413-.55-2.969-.075-1.688-.094-2.194-.094-6.464s.019-4.782.094-6.464c.069-1.563.331-2.407.55-2.969a4.868 4.868 0 0 1 1.2-1.838A4.974 4.974 0 0 1 6.639 3.55c.563-.219 1.413-.481 2.969-.55 1.688-.075 2.194-.094 6.464-.094 4.276 0 4.782.019 6.464.094 1.563.069 2.407.331 2.969.55a4.914 4.914 0 0 1 1.838 1.194 4.974 4.974 0 0 1 1.194 1.838c.219.563.481 1.413.55 2.969.075 1.688.094 2.194.094 6.464s-.019 4.77-.094 6.458z"/><path  d="M16.059 7.783c-4.538 0-8.22 3.682-8.22 8.22s3.682 8.22 8.22 8.22c4.539 0 8.22-3.682 8.22-8.22s-3.682-8.22-8.22-8.22zm0 13.552a5.333 5.333 0 0 1 0-10.664 5.333 5.333 0 0 1 0 10.664zM26.524 7.458a1.919 1.919 0 1 1-3.838 0 1.919 1.919 0 0 1 3.838 0z"/></symbol>
<symbol id="astronaut" viewBox="0 0 32 32"><path fill="#2196f3" style="fill:var(--color2, #2196f3)" d="M31.974 4.524a.534.534 0 0 0-.43-.363l-1.91-.278-.855-1.731c-.179-.365-.777-.365-.956 0l-.855 1.731-1.91.278a.535.535 0 0 0-.296.91l1.383 1.348-.326 1.903c-.034.2.048.402.212.522a.53.53 0 0 0 .562.04l1.709-.899 1.709.899a.536.536 0 0 0 .775-.563l-.326-1.903 1.383-1.348a.536.536 0 0 0 .135-.547zm-2.463 1.327a.534.534 0 0 0-.153.472l.191 1.114-1-.526a.533.533 0 0 0-.498 0l-1.001.526.191-1.114a.534.534 0 0 0-.153-.472l-.81-.789 1.119-.163a.532.532 0 0 0 .402-.292l.5-1.013.5 1.013a.535.535 0 0 0 .402.292l1.119.163-.809.789zM26.134 20.522h-1.067v1.067h1.067v-1.067zM26.134 22.656h-1.067v1.067h1.067v-1.067zM27.2 21.589h-1.067v1.067H27.2v-1.067zM25.067 21.589H24v1.067h1.067v-1.067zM22.4 26.389h-1.067v1.067H22.4v-1.067zM22.4 28.522h-1.067v1.067H22.4v-1.067zM23.467 27.456H22.4v1.067h1.067v-1.067zM21.333 27.456h-1.067v1.067h1.067v-1.067zM16 24.256h-1.067v1.067H16v-1.067zM16 26.389h-1.067v1.067H16v-1.067zM17.067 25.322H16v1.067h1.067v-1.067zM14.933 25.322h-1.067v1.067h1.067v-1.067zM5.867 6.122H4.8v1.067h1.067V6.122zM5.867 8.255H4.8v1.067h1.067V8.255z"/><path fill="#2196f3" style="fill:var(--color2, #2196f3)" d="M6.933 7.189H5.866v1.067h1.067V7.189zM4.8 7.189H3.733v1.067H4.8V7.189z"/><path fill="#212121" style="fill:var(--color4, #212121)" d="M24.715 14.159a1.775 1.775 0 0 0-1.188-.705 1.778 1.778 0 0 0-1.34.352l-1.252.96-1.898 1.417-1.358-.541c2.421-1.086 4.114-3.508 4.114-6.32 0-3.823-3.123-6.933-6.961-6.933s-6.961 3.11-6.961 6.933a6.86 6.86 0 0 0 1.12 3.758l-2.764-.024h-.005c-.009 0-.015.004-.023.005a.515.515 0 0 0-.155.031l-.038.013c-.006.003-.013.003-.019.006l-3.233 1.596-.001.001-1.893.911a.397.397 0 0 0-.063.035 1.779 1.779 0 0 0-.598 2.295c.22.429.595.745 1.056.889a1.776 1.776 0 0 0 1.378-.128l1.388-.738 2.264-1.169 1.357-.008L2.2 22.211l-.002.001-1.339 1.333c-.316.315-.49.732-.49 1.178s.174.863.49 1.179c.325.323.752.485 1.179.485s.854-.162 1.18-.485l1.314-1.309 1.741-1.3.901.897-1.762 1.754-.002.001-1.339 1.333c-.316.315-.49.732-.49 1.178s.174.863.49 1.179c.325.323.753.485 1.18.485s.855-.162 1.18-.485l3.482-3.467.001-.002 1.01-1-.004-.004c.006-.006.015-.009.022-.015l5.166-5.658 3.471.494a.52.52 0 0 0 .262-.033c.018-.006.033-.015.05-.023.019-.01.039-.015.058-.027l3.213-2.133c.012-.008.018-.021.029-.029.013-.01.029-.014.041-.026l1.271-1.191c.662-.62.753-1.635.212-2.362zM2.13 17.77a.714.714 0 0 1-.558.052.717.717 0 0 1-.213-1.26l1.314-.632.449 1.312-.992.528zm3.498-1.828-1.548.8-.439-1.283 2.027-1.001-.04 1.484zm15.099-6.62a5.79 5.79 0 0 1-.599 2.559l-4.181-1.899a1.863 1.863 0 0 0-.788-1.388l1.464-4.86c2.378.756 4.105 2.974 4.105 5.588zm-11.789 0c0-3.235 2.644-5.867 5.894-5.867.253 0 .5.021.745.052l-1.432 4.754c-.019-.001-.037-.006-.057-.006-1.033 0-1.873.837-1.873 1.867s.84 1.867 1.873 1.867c.694 0 1.294-.383 1.618-.945l3.862 1.755a5.894 5.894 0 0 1-4.737 2.39c-3.25 0-5.894-2.632-5.894-5.867zm5.956.8c0 .441-.362.8-.806.8s-.806-.359-.806-.8c0-.441.362-.8.806-.8s.806.359.806.8zM2.465 25.146a.608.608 0 0 1-.854.001.592.592 0 0 1 0-.844l.962-.958.851.848-.959.955zm3.214 3.734a.608.608 0 0 1-.855.001.592.592 0 0 1 0-.844l.963-.959.852.848-.96.955zm3.481-3.469-.002.001-1.765 1.76-.852-.848 1.763-1.755.002-.001c.04-.04.065-.088.09-.135.007-.014.02-.026.026-.04.017-.041.019-.085.026-.129.003-.025.014-.047.014-.073 0-.036-.013-.07-.02-.106-.006-.032-.006-.065-.019-.095a.55.55 0 0 0-.091-.138c-.01-.012-.014-.027-.025-.038h-.001l-.001-.002-1.607-1.6c-.017-.017-.039-.024-.058-.038a.507.507 0 0 0-.087-.058.515.515 0 0 0-.093-.033.507.507 0 0 0-.103-.02.5.5 0 0 0-.095.005.53.53 0 0 0-.104.02.477.477 0 0 0-.094.045c-.02.011-.042.015-.061.029L4.23 23.486l-.901-.897 2.399-2.386 4.361 4.289-.928.919zm6.819-7.017c-.015-.002-.03.004-.045.003a.556.556 0 0 0-.3.075.492.492 0 0 0-.083.061c-.013.011-.028.017-.04.029l-4.698 5.146-4.328-4.257 2.833-2.818a.534.534 0 0 0-.379-.911v-.001l-2.219.013.028-1.607 3.104.027a6.947 6.947 0 0 0 4.981 2.101c.437 0 .864-.045 1.279-.123.04.032.079.065.13.085l2.41.96.331 1.644-3.003-.427zm4.041.178-.313-1.558 1.446-1.08.947 1.257-2.08 1.381zm3.754-2.831-.838.785-.931-1.236.831-.637a.735.735 0 0 1 .543-.143.718.718 0 0 1 .48.284.713.713 0 0 1-.085.947z"/><path fill="#212121" style="fill:var(--color4, #212121)" d="m13.602 18.544-2.143-2.133a.534.534 0 0 0-.753 0l-2.142 2.133a.537.537 0 0 0 0 .756l2.142 2.133a.536.536 0 0 0 .753 0l2.143-2.133a.535.535 0 0 0 0-.756zm-2.519 1.759-1.387-1.381 1.387-1.381 1.387 1.381-1.387 1.381zM17.164 5.071l-.258 1.036c.071.018 1.738.452 1.738 2.149h1.067c0-2.017-1.666-2.965-2.547-3.185zM19.711 9.322h-1.067v1.067h1.067V9.322z"/></symbol>
<symbol id="diagram" viewBox="0 0 32 32"><path fill="#2196f3" style="fill:var(--color2, #2196f3)" d="M14.926 14.965h1.066v4.798h-1.066v-4.797zM19.19 17.097h1.066v2.665H19.19v-2.665zM10.661 18.696h1.066v1.066h-1.066v-1.066zM7.463 18.163h1.066v1.599H7.463v-1.599z"/><path fill="#212121" style="fill:var(--color4, #212121)" d="M1.599 28.291h25.587a1.6 1.6 0 0 0 1.599-1.599V24.56a1.6 1.6 0 0 0-1.599-1.599h-.533V9.668L29.681 6.8a1.608 1.608 0 1 0-.746-.763L26.654 8.2V6.97a1.6 1.6 0 0 0-1.599-1.599H3.733A1.6 1.6 0 0 0 2.134 6.97v15.992h-.533a1.6 1.6 0 0 0-1.599 1.599v2.132a1.6 1.6 0 0 0 1.599 1.599zM30.384 4.837a.533.533 0 1 1 0 1.067.533.533 0 0 1 0-1.067zM3.198 6.969c0-.294.239-.533.533-.533h21.322c.294 0 .533.239.533.533v2.239l-1.066 1.013V8.035a.533.533 0 0 0-.533-.533H4.797a.533.533 0 0 0-.533.533v13.326c0 .294.239.533.533.533h19.19a.533.533 0 0 0 .533-.533v-9.674l1.066-1.01v12.284H3.198V6.969zm4.798 6.93a1.598 1.598 0 1 0 1.107 2.749l1.853.93a.532.532 0 0 0 .636-.123l3.939-4.431 3.872 2.901a.533.533 0 0 0 .686-.039l3.365-3.188v8.131H5.33V8.569h18.124v2.66l-3.771 3.572-3.904-2.927a.533.533 0 0 0-.718.072l-3.993 4.493-1.493-.746c.011-.064.018-.129.02-.193a1.6 1.6 0 0 0-1.599-1.599zm.533 1.599a.533.533 0 1 1-1.067 0 .533.533 0 0 1 1.067 0zm3.198 8.529h5.331v.533a.533.533 0 0 1-.533.533h-4.264a.533.533 0 0 1-.533-.533v-.533zm-10.661.533c0-.294.239-.533.533-.533h9.062v.533a1.6 1.6 0 0 0 1.599 1.599h4.264a1.6 1.6 0 0 0 1.599-1.599v-.533h9.062c.294 0 .533.239.533.533v2.132a.533.533 0 0 1-.533.533H1.598a.533.533 0 0 1-.533-.533V24.56z"/></symbol>
<symbol id="clock" viewBox="0 0 32 32"><path fill="#212121" style="fill:var(--color4, #212121)" d="M31.297 15.301C31.295 6.849 24.442-.002 15.989 0S.686 6.855.688 15.308a15.304 15.304 0 0 0 10.649 14.576.662.662 0 0 0 .529-.065.637.637 0 0 0 .283-.356l3.865-12.25a1.912 1.912 0 1 0-.84-3.635l-5.106-5.107a.637.637 0 0 0-.902.902l5.103 5.109a1.876 1.876 0 0 0 .536 2.309l-3.683 11.673C3.844 25.783.118 17.71 2.799 10.432S13.553-.572 20.831 2.109s11.004 10.754 8.323 18.032a14.042 14.042 0 0 1-7.462 7.973l-.398-1.874a.638.638 0 0 0-1.048-.344l-3.837 3.426a.637.637 0 0 0 .231 1.084l4.899 1.563a.638.638 0 0 0 .819-.74l-.391-1.839a15.255 15.255 0 0 0 9.329-14.089zm-15.305-.637a.638.638 0 1 1 0 1.277.638.638 0 0 1 0-1.277zm2.101 14.864 2.184-1.948.603 2.84-2.787-.892z"/><path fill="#2196f3" style="fill:var(--color2, #2196f3)" d="M15.354 3.185V4.46a.638.638 0 1 0 1.276 0V3.185a.638.638 0 0 0-1.276 0zM3.876 14.664a.638.638 0 0 0 0 1.276h1.275a.638.638 0 1 0 0-1.276H3.876zM28.108 15.939a.638.638 0 1 0 0-1.276h-1.275a.638.638 0 0 0 0 1.276h1.275z"/></symbol>
<symbol id="antenna" viewBox="0 0 32 32"><path fill="#212121" style="fill:var(--color4, #212121)" d="m30.773 22.098-8.443-8.505.937-4.615c.242.094.499.144.758.146h.006a2.159 2.159 0 1 0-2.008-1.435l-4.96.605L8.972.161a.534.534 0 0 0-.377-.16.532.532 0 0 0-.373.155L6.709 1.66a.534.534 0 0 0 0 .754l.814.826a14.943 14.943 0 0 0 2.519 17.663.513.513 0 0 0 .146.098c-.034.18-.051.364-.052.547v6.187h-6.4a2.67 2.67 0 0 0-2.667 2.667v1.067c0 .295.239.533.533.533h24.533a.533.533 0 0 0 .533-.533v-1.067a2.67 2.67 0 0 0-2.667-2.667h-6.4v-2.742a15.09 15.09 0 0 0 3.049.32 14.854 14.854 0 0 0 7.04-1.783l.818.823a.534.534 0 0 0 .377.16.532.532 0 0 0 .373-.155l1.513-1.504a.534.534 0 0 0 0-.754zM23.28 6.233a1.066 1.066 0 1 1 .752 1.822h-.003a1.067 1.067 0 0 1-.747-1.823h-.002zm-1.256 3.505-.598 2.946-1.175-1.182 1.774-1.763zm-.605-.902-1.92 1.909-1.485-1.493 3.405-.415zM24.004 28.8a1.6 1.6 0 0 1 1.6 1.6v.533H2.137V30.4a1.6 1.6 0 0 1 1.6-1.6h20.267zm-7.467-2.133v1.067h-5.333v-1.067h5.333zM11.204 25.6v-4.053c0-1.294 1.196-2.347 2.667-2.347s2.667 1.053 2.667 2.347V25.6h-5.333zm6.4-1.696v-2.357c0-1.882-1.675-3.413-3.733-3.413a3.8 3.8 0 0 0-3.281 1.786A13.87 13.87 0 0 1 8.311 4.033l18.602 18.708a13.818 13.818 0 0 1-9.309 1.163zm11.289-.684L7.836 2.039l.755-.752 7.935 7.98c.004 0 .006.007.01.01l13.115 13.191-.757.752z"/><path fill="#2196f3" style="fill:var(--color2, #2196f3)" d="M13.876 20.267h-.005a1.6 1.6 0 1 0-.004 3.2h.005a1.6 1.6 0 1 0 .004-3.2zm.373 1.978a.534.534 0 0 1-.752-.756.534.534 0 0 1 .373-.155.532.532 0 0 1 .373.911h.005z"/></symbol>
<symbol id="envelope" viewBox="0 0 32 32"><path  d="M29 4H3C1.346 4 0 5.346 0 7v18c0 1.654 1.346 3 3 3h26c1.654 0 3-1.346 3-3V7c0-1.654-1.346-3-3-3zm0 2c.136 0 .265.028.383.077L16 17.676 2.617 6.077A.996.996 0 0 1 3 6h26zm0 20H3a1 1 0 0 1-1-1V8.19l13.345 11.565a.998.998 0 0 0 1.31 0L30 8.19V25a1 1 0 0 1-1 1z"/></symbol>
<symbol id="smartphone" viewBox="0 0 32 32"><path  d="M23 0H9C7.346 0 6 1.346 6 3v26c0 1.654 1.346 3 3 3h14c1.654 0 3-1.346 3-3V3c0-1.654-1.346-3-3-3zM9 2h14a1 1 0 0 1 1 1v21H8V3a1 1 0 0 1 1-1zm14 28H9a1 1 0 0 1-1-1v-3h16v3a1 1 0 0 1-1 1z"/><path fill="#757575" style="fill:var(--color5, #757575)" d="M10.707 27.478c.391.365.391.956 0 1.321s-1.024.365-1.414 0c-.391-.365-.391-.956 0-1.321s1.024-.365 1.414 0z"/></symbol>
<symbol id="icon-X" viewBox="0 0 32 32"><path d="M32 3.223 28.777 0 16 12.777 3.223 0 0 3.223 12.777 16 0 28.777 3.223 32 16 19.223 28.777 32 32 28.777 19.223 16 32 3.223z"/></symbol>

<symbol id="footer-send" viewBox="0 0 32 32"><path d="M32 0 0 18l10.227 3.788L26 7 14.002 23.186l.01.004-.012-.004V32l5.735-6.691L27 28l5-28z"/></symbol>
<symbol id="checkbox" viewBox="0 0 34 32"><path d="M30.341 3.556v24.889H3.793V3.556h26.548zm0-3.556H3.793C1.707 0 0 1.6 0 3.556v24.889c0 1.956 1.707 3.556 3.793 3.556h26.548c2.086 0 3.793-1.6 3.793-3.556V3.556C34.134 1.6 32.427 0 30.341 0z"/></symbol>
<symbol id="check" viewBox="0 0 42 32"><path fill="#fff" style="fill:var(--color1, #fff);stroke:var(--color1, #fff)" stroke="#fff" stroke-width=".64" d="m6.263 15.205-.22-.21-3.307 3.132 11.651 11.114L38.864 5.89l-3.285-3.134-21.192 20.197-8.124-7.75z"/></symbol>
<symbol id="icon-person" viewBox="0 0 32 32"><path d="M16 16c4.42 0 8-3.58 8-8s-3.58-8-8-8-8 3.58-8 8 3.58 8 8 8zm0 4c-5.34 0-16 2.68-16 8v2c0 1.1.9 2 2 2h28c1.1 0 2-.9 2-2v-2c0-5.32-10.66-8-16-8z"/></symbol>

<symbol id="email-form" viewBox="0 0 43 32"><path d="M37.333 0h-32c-2.2 0-3.98 1.8-3.98 4l-.02 24c0 2.2 1.8 4 4 4h32c2.2 0 4-1.8 4-4V4c0-2.2-1.8-4-4-4zm-.8 8.5-14.14 8.84c-.64.4-1.48.4-2.12 0L6.133 8.5c-.5-.32-.8-.86-.8-1.44 0-1.34 1.46-2.14 2.6-1.44l13.4 8.38 13.4-8.38c1.14-.7 2.6.1 2.6 1.44 0 .58-.3 1.12-.8 1.44z"/></symbol>
<symbol id="email" viewBox="0 0 43 32"><path d="M37.333 0h-32c-2.2 0-3.98 1.8-3.98 4l-.02 24c0 2.2 1.8 4 4 4h32c2.2 0 4-1.8 4-4V4c0-2.2-1.8-4-4-4zm-.8 8.5-14.14 8.84c-.64.4-1.48.4-2.12 0L6.133 8.5c-.5-.32-.8-.86-.8-1.44 0-1.34 1.46-2.14 2.6-1.44l13.4 8.38 13.4-8.38c1.14-.7 2.6.1 2.6 1.44 0 .58-.3 1.12-.8 1.44z"/></symbol>
<symbol id="phone" viewBox="0 0 32 32"><path d="m27.419 20.852-4.201-.48a3.293 3.293 0 0 0-2.713.943l-3.044 3.044A24.888 24.888 0 0 1 6.56 13.458l3.06-3.06a3.293 3.293 0 0 0 .943-2.713l-.48-4.168A3.31 3.31 0 0 0 6.791.589H3.929C2.06.589.505 2.144.621 4.013c.877 14.126 12.174 25.407 26.284 26.284 1.869.116 3.424-1.439 3.424-3.308v-2.861c.016-1.671-1.241-3.077-2.911-3.275z"/></symbol>

</defs></svg>